<svg width="60" height="60" viewBox="0 0 60 60" fill="none" xmlns="http://www.w3.org/2000/svg">
<path d="M54.9979 42.0009C54.9979 42.2706 54.7717 42.4968 54.4933 42.4968H47.499C47.2206 42.4968 46.9944 42.2706 46.9944 42.0009V30.9961C46.9944 30.7177 47.2206 30.5003 47.499 30.5003H54.4933C54.7717 30.5003 54.9979 30.7177 54.9979 30.9961V42.0009ZM12.5011 30.5003C12.7795 30.5003 12.997 30.7177 12.997 30.9961V42.0009C12.997 42.2706 12.7795 42.4968 12.5011 42.4968H5.49808C5.2197 42.4968 5.00221 42.2706 5.00221 42.0009V30.9961C5.00221 30.7177 5.2197 30.5003 5.49808 30.5003H12.5011ZM52.5011 28.4994C52.214 28.4994 51.9966 28.2471 51.9966 27.9687C51.9966 26.7943 51.9966 24.0627 51.9966 23.4972C51.9966 11.3528 42.1488 1.49634 29.9957 1.49634C17.8513 1.49634 8.00352 11.3528 8.00352 23.4972C8.00352 24.0627 8.00352 26.7943 8.00352 27.9687C8.00352 28.2471 7.78603 28.4994 7.49895 28.4994H4.00178C3.44501 28.4994 3.00134 28.9431 3.00134 29.4998V43.4972C3.00134 44.054 3.44501 44.4976 4.00178 44.4976H13.9974C14.5542 44.4976 14.9979 44.054 14.9979 43.4972V29.4998C14.9979 28.9431 14.5542 28.4994 13.9974 28.4994H10.5003C10.2132 28.4994 9.99569 28.2471 9.99569 27.9687C9.99569 26.7943 9.99569 24.0627 9.99569 23.4972C9.99569 12.475 18.9735 3.49721 29.9957 3.49721C41.0266 3.49721 49.9957 12.475 49.9957 23.4972C49.9957 24.0627 49.9957 26.7943 49.9957 27.9687C49.9957 28.2471 49.7782 28.4994 49.4998 28.4994H45.9939C45.4459 28.4994 44.9935 28.9431 44.9935 29.4998V43.4972C44.9935 44.054 45.4459 44.4976 45.9939 44.4976H48.7778C49.0126 44.4976 49.117 44.7673 48.9953 44.9587C47.1597 47.9339 44.5672 50.3872 41.4789 52.0575C41.2006 52.2053 40.8613 52.1357 40.5916 51.9618C40.1305 51.666 39.5825 51.5007 38.9996 51.5007C37.338 51.5007 35.9983 52.8404 35.9983 54.4933C35.9983 56.1549 37.338 57.4946 38.9996 57.4946C40.6003 57.4946 41.9139 56.2332 41.9922 54.6499C42.0096 54.3628 42.0879 54.0496 42.3402 53.9104C46.1766 51.8574 49.3258 48.6995 51.3789 44.8717C51.5181 44.6194 51.7965 44.4976 52.0749 44.4976H55.9983C56.5464 44.4976 56.9987 44.054 56.9987 43.4972V29.4998C56.9987 28.9431 56.5464 28.4994 55.9983 28.4994H52.5011Z" fill="#329FD9"/>
</svg>
