<svg width="60" height="60" viewBox="0 0 60 60" fill="none" xmlns="http://www.w3.org/2000/svg">
<g clip-path="url(#clip0_43_35)">
<path d="M47.5041 26.9821C47.2104 26.9821 46.9494 26.7537 46.982 26.4927C46.982 26.3295 46.982 26.1664 46.982 26.0033V10.5384C46.982 10.2447 47.2104 9.98371 47.5041 9.98371C52.1696 9.98371 55.9869 13.801 55.9869 18.4992C55.9869 23.1974 52.1696 26.9821 47.5041 26.9821ZM44.9918 26.0033C44.9918 34.2578 38.2708 40.9788 29.9837 40.9788C21.7292 40.9788 15.0081 34.2578 15.0081 26.0033V4.50247C15.0081 4.20883 15.2365 4.01307 15.4975 4.01307H44.5024C44.7634 4.01307 44.9918 4.20883 44.9918 4.50247V26.0033ZM39.478 51.9739C39.7716 51.9739 40 52.2023 40 52.4959V55.4976C40 55.7586 39.7716 55.987 39.478 55.987H20.4894C20.2284 55.987 20 55.7586 20 55.4976V52.4959C20 52.2023 20.2284 51.9739 20.4894 51.9739H39.478ZM4.01304 18.4992C4.01304 13.801 7.79771 9.98371 12.4959 9.98371C12.7896 9.98371 12.9853 10.2447 12.9853 10.5384V26.0033C12.9853 26.1664 13.0179 26.3295 13.0179 26.4927C13.0179 26.7863 12.7896 26.9821 12.4959 26.9821C7.79771 26.9821 4.01304 23.1974 4.01304 18.4992ZM47.5041 7.9935C47.2104 7.9935 46.982 7.79774 46.982 7.53673V3.00165C46.982 2.447 46.5579 1.99023 46.0033 1.99023H13.9967C13.4421 1.99023 12.9853 2.447 12.9853 3.00165V7.53673C12.9853 7.79774 12.7569 7.9935 12.4959 7.9935C6.68841 7.9935 1.9902 12.6917 1.9902 18.4992C1.9902 24.3067 6.68841 29.0049 12.4959 29.0049C12.5612 29.0049 12.6264 29.0049 12.6917 29.0049C13.0179 28.9723 13.3116 29.168 13.3768 29.4943C14.8776 36.7048 20.9788 42.2186 28.4502 42.9038C28.7439 42.9364 29.0049 43.1322 29.0049 43.4258V49.4943C29.0049 49.7553 28.7765 49.9837 28.4829 49.9837H18.9886C18.4339 49.9837 18.0098 50.4405 18.0098 50.9951V56.9984C18.0098 57.553 18.4339 57.9772 18.9886 57.9772H40.9788C41.5334 57.9772 41.9902 57.553 41.9902 56.9984V50.9951C41.9902 50.4405 41.5334 49.9837 40.9788 49.9837H31.4845C31.2235 49.9837 30.9951 49.7553 30.9951 49.4943V43.4258C30.9951 43.1322 31.2561 42.9364 31.5497 42.9038C39.0212 42.2186 45.0897 36.6721 46.6232 29.4617C46.6884 29.168 46.982 28.9723 47.3083 29.0049C47.3736 29.0049 47.4388 29.0049 47.5041 29.0049C53.2789 29.0049 57.9771 24.3067 57.9771 18.4992C57.9771 12.6917 53.2789 7.9935 47.5041 7.9935Z" fill="#329FD9"/>
</g>
<defs>
<clipPath id="clip0_43_35">
<rect width="60" height="60" fill="white"/>
</clipPath>
</defs>
</svg>
