<svg width="60" height="60" viewBox="0 0 60 60" fill="none" xmlns="http://www.w3.org/2000/svg">
<g clip-path="url(#clip0_43_2)">
<path d="M44.0084 43.9832C44.0084 51.7137 37.7432 58.0042 30.0126 58.0042C22.3074 58.0042 16.0168 51.7137 16.0168 43.9832C16.0168 36.2779 22.3074 29.9874 30.0126 29.9874C37.7432 29.9874 44.0084 36.2779 44.0084 43.9832ZM6.66948 2.45053C6.59369 2.24842 6.74527 1.99579 6.97264 1.99579H13.819C14.1221 1.99579 14.3747 2.17263 14.5011 2.45053L25.4147 28.1684C25.5158 28.3958 25.4147 28.6737 25.1621 28.7747C23.0905 29.4316 21.1958 30.4926 19.6042 31.8821C19.4274 32.0337 19.1747 31.9074 19.0737 31.7053L6.66948 2.45053ZM42.9979 1.99579C43.2505 1.99579 43.4021 2.24842 43.3263 2.45053L41.1537 7.52842C41.0526 7.80632 40.7747 8.00842 40.4716 8.00842H19.5284C19.2253 8.00842 18.9474 7.80632 18.8211 7.52842L16.6737 2.45053C16.5726 2.24842 16.7495 1.99579 16.9768 1.99579H42.9979ZM32.5895 27.7389C32.4632 28.0168 32.1347 28.1432 31.8063 28.1179C31.2253 28.0421 30.619 27.9916 30.0126 27.9916C29.3558 27.9916 28.699 28.0421 28.0421 28.1432C27.7642 28.1684 27.5116 27.9916 27.4105 27.7389L20.059 10.4589C19.9832 10.2316 20.1347 10.0042 20.3621 10.0042H39.6126C39.8653 10.0042 40.0169 10.2316 39.9158 10.4589L32.5895 27.7389ZM53.0021 1.99579C53.2547 1.99579 53.4063 2.24842 53.3053 2.45053L40.9263 31.68C40.8253 31.8821 40.5726 31.9832 40.3958 31.8316C38.779 30.4421 36.8842 29.3811 34.8126 28.7495C34.56 28.6737 34.4842 28.3958 34.5853 28.1432L45.499 2.45053C45.6 2.17263 45.8779 1.99579 46.1811 1.99579H53.0021ZM56.1347 0.909474C56.3368 0.48 56.0084 0 55.5284 0H4.47159C3.99159 0 3.66316 0.48 3.86527 0.909474L17.5832 33.2463C17.6842 33.5495 17.6337 33.8779 17.4568 34.1053C15.3095 36.8337 14.0211 40.2695 14.0211 43.9832C14.0211 52.8253 21.1958 60 30.0126 60C38.8547 60 46.0295 52.8253 46.0295 43.9832C46.0295 40.2442 44.7158 36.8084 42.5684 34.08C42.3663 33.8274 42.3158 33.499 42.4421 33.2211L56.1347 0.909474Z" fill="white"/>
<path d="M31.0232 39.0063C31.0232 38.4505 30.5684 37.9958 30.0126 37.9958C29.4821 37.9958 29.0274 38.4505 29.0274 39.0063V39.4863C29.0274 39.7642 28.8 39.9916 28.5221 39.9916H28.0168C27.4611 39.9916 27.0316 40.4463 27.0316 41.0021C27.0316 41.5579 27.4611 41.9874 28.0168 41.9874H28.5221C28.8 41.9874 29.0274 42.2147 29.0274 42.4926V47.4947C29.0274 47.7726 28.8 48 28.5221 48H28.0168C27.4611 48 27.0316 48.4295 27.0316 48.9853C27.0316 49.5411 27.4611 49.9958 28.0168 49.9958H32.0337C32.5642 49.9958 33.019 49.5411 33.019 48.9853C33.019 48.4295 32.5642 48 32.0337 48H31.5284C31.2505 48 31.0232 47.7726 31.0232 47.4947V39.0063Z" fill="white"/>
</g>
<defs>
<clipPath id="clip0_43_2">
<rect width="60" height="60" fill="white"/>
</clipPath>
</defs>
</svg>
