<svg width="60" height="60" viewBox="0 0 60 60" fill="none" xmlns="http://www.w3.org/2000/svg">
<g clip-path="url(#clip0_43_27)">
<path d="M54.982 29.005C53.2084 29.005 51.5862 29.6539 50.3533 30.757C50.1586 30.9301 49.8342 30.9301 49.6179 30.757C48.385 29.6539 46.7628 29.005 44.9892 29.005C43.2156 29.005 41.5934 29.6539 40.3605 30.757C40.1442 30.9301 39.8414 30.9301 39.6251 30.757C38.3922 29.6539 36.77 29.005 34.9964 29.005C33.2228 29.005 31.6006 29.6539 30.3677 30.757C30.1514 30.9301 29.827 30.9301 29.6323 30.757C28.3994 29.6539 26.7772 29.005 25.0036 29.005C23.23 29.005 21.6078 29.6539 20.3749 30.757C20.1586 30.9301 19.8342 30.9301 19.6179 30.757C18.385 29.6539 16.7628 29.005 14.9892 29.005C13.2156 29.005 11.5934 29.6539 10.3605 30.757C10.1658 30.9301 9.84138 30.9301 9.62509 30.757C8.39221 29.6539 6.77001 29.005 4.9964 29.005C4.4124 29.005 3.85004 29.0699 3.33093 29.1997C3.07138 29.2646 2.87671 29.0267 2.9416 28.7888C6.12112 16.8277 17.044 8.00288 30 8.00288C42.9344 8.00288 53.8572 16.8277 57.0368 28.7888C57.1017 29.0267 56.907 29.2646 56.6691 29.1997C56.1283 29.0699 55.566 29.005 54.982 29.005ZM31.5573 6.05624C31.2545 6.03461 30.995 5.81831 30.995 5.5155V0.994953C30.995 0.454218 30.5407 0 30 0C29.4376 0 29.005 0.454218 29.005 0.994953V5.5155C29.005 5.81831 28.7239 6.03461 28.4211 6.05624C12.783 6.85652 0.302812 19.6395 0 35.429C0 35.4506 0.0216294 35.4939 0.0216294 35.4722C0.281182 32.9632 2.40087 30.995 4.9964 30.995C7.59193 30.995 9.71161 32.9632 9.97116 35.4722C9.97116 35.5155 10.0144 35.5155 10.0144 35.4722C10.274 32.9632 12.4153 30.995 14.9892 30.995C17.5847 30.995 19.7044 32.9632 19.9639 35.4722C19.9639 35.5155 20.0288 35.5155 20.0288 35.4722C20.2884 32.9632 22.4081 30.995 25.0036 30.995C26.4311 30.995 27.7289 31.6006 28.6373 32.5739C28.8753 32.8335 29.005 33.1795 29.005 33.5256V54.982C29.005 57.7505 31.2329 60 34.0014 60C36.4023 60 38.4355 58.2696 38.8897 55.9986C38.9978 55.4578 38.5436 54.982 38.0029 54.982C37.4621 54.982 37.0079 55.3713 36.8565 55.8904C36.4672 57.1017 35.3425 57.9885 34.0014 57.9885C32.336 57.9885 30.995 56.6474 30.995 54.982V33.5256C30.995 33.1795 31.1247 32.8335 31.3627 32.5739C32.2711 31.6006 33.5472 30.995 34.9964 30.995C37.5919 30.995 39.7116 32.9632 39.9712 35.4722C39.9712 35.5155 40.0144 35.5155 40.0144 35.4722C40.274 32.9632 42.3937 30.995 44.9892 30.995C47.5847 30.995 49.7044 32.9632 49.9639 35.4722C49.9639 35.5155 50.0072 35.5155 50.0072 35.4722C50.2668 32.9632 52.4081 30.995 54.982 30.995C57.5775 30.995 59.6972 32.9632 59.9567 35.4722C59.9567 35.4939 59.9784 35.4506 59.9784 35.429C59.6972 19.6395 47.217 6.85652 31.5573 6.05624Z" fill="#329FD9"/>
</g>
<defs>
<clipPath id="clip0_43_27">
<rect width="60" height="60" fill="white"/>
</clipPath>
</defs>
</svg>
