<svg width="60" height="60" viewBox="0 0 60 60" fill="none" xmlns="http://www.w3.org/2000/svg">
<g clip-path="url(#clip0_45_44)">
<path d="M45.5152 19.4664C45.6174 19.1769 45.8899 18.9896 46.1965 18.9896H56.3129C56.5172 18.9896 56.6364 19.228 56.5172 19.3983L33.253 51.6719C33.2189 51.74 33.1167 51.689 33.1508 51.6038L45.5152 19.4664ZM31.0049 19.5005C31.0049 19.228 31.2263 18.9896 31.4988 18.9896H43.0458C43.2842 18.9896 43.4545 19.245 43.3693 19.4664L31.1922 51.144C31.1411 51.2291 31.0049 51.2121 31.0049 51.1099V19.5005ZM31.0049 4.01936C31.0049 3.84905 31.2263 3.7639 31.3285 3.90014L42.4667 16.6223C42.603 16.7755 42.5008 16.9969 42.2964 16.9969H31.4988C31.2263 16.9969 31.0049 16.7755 31.0049 16.503V4.01936ZM43.6078 2.9975C43.9143 2.9975 44.2209 3.13375 44.4253 3.37218L56.1255 16.6223C56.2447 16.7755 56.1426 16.9969 55.9552 16.9969H45.958C45.6345 16.9969 45.3279 16.8607 45.1235 16.6223L33.5425 3.37218C33.4062 3.23594 33.5084 2.9975 33.7128 2.9975H43.6078ZM29.0123 16.503C29.0123 16.7755 28.7738 16.9969 28.5013 16.9969H17.7037C17.5164 16.9969 17.4142 16.7755 17.5334 16.6223L28.6716 3.90014C28.7909 3.7639 29.0123 3.84905 29.0123 4.01936V16.503ZM29.0123 51.1099C29.0123 51.2121 28.859 51.2291 28.8249 51.144L16.6478 19.4664C16.5626 19.245 16.7159 18.9896 16.9544 18.9896H28.5013C28.7738 18.9896 29.0123 19.228 29.0123 19.5005V51.1099ZM3.48288 19.3983C3.36367 19.228 3.48288 18.9896 3.68726 18.9896H13.8207C14.1272 18.9896 14.3997 19.1769 14.5019 19.4664L26.8664 51.6038C26.8834 51.689 26.7982 51.74 26.7471 51.6719L3.48288 19.3983ZM15.5749 3.37218C15.7792 3.13375 16.0858 2.9975 16.4094 2.9975H26.3043C26.4917 2.9975 26.5939 3.23594 26.4747 3.37218L14.8766 16.6223C14.6722 16.8607 14.3657 16.9969 14.0591 16.9969H4.06194C3.85757 16.9969 3.75538 16.7755 3.89163 16.6223L15.5749 3.37218ZM45.6685 1.75424C45.2427 1.27738 44.6296 1.00488 43.9995 1.00488H16.0006C15.3705 1.00488 14.7574 1.27738 14.3486 1.75424L0.672779 17.2524C0.281068 17.6782 0.247006 18.3424 0.587625 18.8022L29.421 58.7909C29.7105 59.1996 30.3066 59.1996 30.5961 58.7909L59.4125 18.8022C59.7531 18.3424 59.719 17.6782 59.3444 17.2524L45.6685 1.75424Z" fill="#329FD9"/>
</g>
<defs>
<clipPath id="clip0_45_44">
<rect width="60" height="60" fill="white"/>
</clipPath>
</defs>
</svg>
