<svg width="156" height="112" viewBox="0 0 156 112" fill="none" xmlns="http://www.w3.org/2000/svg">
<path d="M0 0.48L25.136 49.8215L35.896 0.48H0Z" fill="url(#paint0_linear_14_16)"/>
<path d="M15.5168 99.1634L61.032 49.8215H25.136L15.5168 99.1634Z" fill="url(#paint1_linear_14_16)"/>
<path d="M13.1232 111.44H13.2816L32.2064 90.9203L25.136 49.8215L13.1232 111.44Z" fill="url(#paint2_linear_14_16)"/>
<path d="M50.2064 28.565L65.1008 31.158L80 33.7422L69.1738 12.4863L50.2064 28.565Z" fill="url(#paint3_linear_14_16)"/>
<path d="M25.136 49.8214H61.032L69.1738 12.4863L50.2064 28.565L25.136 49.8214Z" fill="url(#paint4_linear_14_16)"/>
<path d="M25.136 49.8215H61.032L35.896 0.48L25.136 49.8215Z" fill="url(#paint5_linear_14_16)"/>
<path d="M69.1738 12.4863L65.104 31.158L65.8522 31.235L69.1738 12.4863Z" fill="#15468D"/>
<path d="M61.032 49.8215L50.2064 28.5694L50.8432 28.0239L61.032 49.8215Z" fill="#15468D"/>
<path d="M30.7776 82.62L31.5392 81.7931L25.136 49.8215L30.7776 82.62Z" fill="#15468D"/>
<path d="M93.65 24.702L91.472 27.42C91.808 27.6 92.198 27.768 92.642 27.924C93.074 28.092 93.548 28.23 94.064 28.338C94.58 28.446 95.114 28.5 95.666 28.5C96.314 28.5 96.938 28.434 97.538 28.302C98.138 28.182 98.672 27.984 99.14 27.708C99.608 27.432 99.98 27.06 100.256 26.592C100.532 26.136 100.67 25.572 100.67 24.9V11.4H96.26V23.91C96.26 24.414 96.14 24.762 95.9 24.954C95.66 25.158 95.402 25.26 95.126 25.26C94.898 25.26 94.652 25.2 94.388 25.08C94.112 24.96 93.866 24.834 93.65 24.702ZM105.922 24H112.276V20.85H105.922V24ZM105.922 14.55H112.276V11.4H105.922V14.55ZM105.922 19.05H111.916V15.99H105.922V19.05ZM103.186 11.4V24H106.966V11.4H103.186ZM113.352 14.91H116.952V24H120.912V14.91H124.512V11.4H113.352V14.91ZM126.447 22.38H133.107V19.536H126.447V22.38ZM129.741 17.124L131.289 20.598L131.019 21.624L132.351 24H136.851L129.741 10.5L122.631 24H127.131L128.499 21.498L128.193 20.598L129.741 17.124ZM138.026 11.4V24H142.076V11.4H138.026ZM148.29 18.6L151.35 24H155.94L152.34 18.6H148.29ZM144.6 11.4V24H148.56V11.4H144.6ZM147.156 14.73H149.55C149.886 14.73 150.162 14.778 150.378 14.874C150.594 14.958 150.756 15.09 150.864 15.27C150.984 15.438 151.044 15.648 151.044 15.9C151.044 16.14 150.984 16.35 150.864 16.53C150.756 16.71 150.594 16.848 150.378 16.944C150.162 17.028 149.886 17.07 149.55 17.07H147.156V20.04H149.91C151.146 20.04 152.148 19.854 152.916 19.482C153.696 19.11 154.266 18.6 154.626 17.952C154.998 17.292 155.184 16.548 155.184 15.72C155.184 14.88 154.998 14.136 154.626 13.488C154.266 12.84 153.696 12.33 152.916 11.958C152.148 11.586 151.146 11.4 149.91 11.4H147.156V14.73Z" fill="white"/>
<defs>
<linearGradient id="paint0_linear_14_16" x1="33.4752" y1="25.1516" x2="-1.5552" y2="25.1516" gradientUnits="userSpaceOnUse">
<stop stop-color="#329FD9"/>
<stop offset="1" stop-color="#15468D"/>
</linearGradient>
<linearGradient id="paint1_linear_14_16" x1="21.232" y1="73.5962" x2="60.5616" y2="50.9499" gradientUnits="userSpaceOnUse">
<stop stop-color="#329FD9"/>
<stop offset="1" stop-color="#15468D"/>
</linearGradient>
<linearGradient id="paint2_linear_14_16" x1="24.584" y1="51.3632" x2="21.0255" y2="100.258" gradientUnits="userSpaceOnUse">
<stop stop-color="#329FD9"/>
<stop offset="1" stop-color="#15468D"/>
</linearGradient>
<linearGradient id="paint3_linear_14_16" x1="70.1662" y1="40.272" x2="50.1796" y2="20.3346" gradientUnits="userSpaceOnUse">
<stop stop-color="#329FD9"/>
<stop offset="1" stop-color="#15468D"/>
</linearGradient>
<linearGradient id="paint4_linear_14_16" x1="73.6845" y1="23.1392" x2="46.1587" y2="35.842" gradientUnits="userSpaceOnUse">
<stop stop-color="#329FD9"/>
<stop offset="1" stop-color="#15468D"/>
</linearGradient>
<linearGradient id="paint5_linear_14_16" x1="43.0848" y1="49.5245" x2="43.0848" y2="0.5056" gradientUnits="userSpaceOnUse">
<stop stop-color="#329FD9"/>
<stop offset="1" stop-color="#15468D"/>
</linearGradient>
</defs>
</svg>
